<svg width="121" height="46" viewBox="0 0 121 46" fill="none" xmlns="http://www.w3.org/2000/svg">
<path d="M6.50991 23.0077C6.50532 26.4753 7.18554 29.9096 8.51152 33.1135C9.83751 36.3175 11.7831 39.2281 14.2368 41.6783L10.1224 45.7927C4.08257 39.744 0.691442 31.5447 0.694338 22.9968C0.697233 14.449 4.09391 6.25197 10.1379 0.207397L14.2535 4.32301C11.7949 6.77331 9.845 9.68555 8.51606 12.8922C7.18712 16.0989 6.50533 19.5366 6.50991 23.0077Z" fill="black"/>
<path d="M15.9191 23.0079C15.9162 25.239 16.3552 27.4485 17.2107 29.509C18.0662 31.5695 19.3213 33.4401 20.9036 35.013L16.7969 39.1197C14.6747 37.0054 12.9911 34.4927 11.8428 31.7259C10.6945 28.9591 10.1041 25.9926 10.1055 22.997C10.107 20.0014 10.7002 17.0355 11.8512 14.2698C13.0021 11.5041 14.6881 8.99298 16.8123 6.88074L20.919 10.9874C19.3321 12.5609 18.0731 14.4335 17.2149 16.4968C16.3567 18.5601 15.9162 20.7732 15.9191 23.0079Z" fill="black"/>
<path d="M29.7682 33.1832C35.1096 33.1832 39.1373 29.8412 39.1373 22.5564H29.2247V25.7841H34.7947C34.7947 28.0693 32.2524 29.6118 29.6816 29.6118C26.0825 29.6118 23.4831 26.5267 23.4831 23.0134C23.4831 19.5 26.1396 16.5005 29.5672 16.5005C30.3948 16.5036 31.2127 16.6778 31.9697 17.012C32.7267 17.3463 33.4065 17.8334 33.9663 18.4428L36.8516 15.9576C35.1377 14.0439 32.5383 12.8157 29.5676 12.8157C23.9118 12.8157 19.513 17.4145 19.513 23.0132C19.5136 28.5844 23.8269 33.1832 29.7682 33.1832ZM48.5793 33.1832C52.379 33.1832 55.7491 30.3839 55.7491 26.185C55.7491 21.9574 52.3784 19.158 48.5793 19.158C44.7803 19.158 41.4095 21.9574 41.4095 26.185C41.4095 30.3831 44.7801 33.1832 48.5793 33.1832ZM48.5793 29.6983C46.7226 29.6983 44.8217 28.2415 44.8217 26.185C44.8217 24.0998 46.7226 22.643 48.5793 22.643C50.4361 22.643 51.9498 24.0998 51.9498 26.185C51.9498 28.2417 50.4359 29.6985 48.5793 29.6985V29.6983ZM65.1393 33.1832C68.9389 33.1832 72.3091 30.3839 72.3091 26.185C72.3091 21.9574 68.9383 19.158 65.1393 19.158C61.3402 19.158 57.9695 21.9574 57.9695 26.185C57.9703 30.3831 61.3409 33.1832 65.1401 33.1832H65.1393ZM65.1393 29.6983C63.2825 29.6983 61.7686 28.2415 61.7686 26.185C61.7686 24.0998 63.2825 22.643 65.1393 22.643C66.996 22.643 68.5098 24.0998 68.5098 26.185C68.5106 28.2417 66.9977 29.6985 65.1401 29.6985L65.1393 29.6983ZM82.2713 19.158C80.9572 19.158 78.8434 19.9578 78.2723 21.7574V19.501H74.5303V32.8407H78.2723V25.8422C78.2723 23.4143 79.9289 22.7003 81.2716 22.7003C82.5569 22.7003 83.8137 23.6429 83.8137 25.7278V32.8394H87.5556V25.528C87.5851 21.5291 85.757 19.158 82.2721 19.158H82.2713ZM103.803 25.9564C103.803 21.8723 100.689 19.158 96.8615 19.158C93.0619 19.158 89.7775 21.8716 89.7775 26.185C89.7775 30.2983 92.7768 33.1832 96.8892 33.1832C99.2313 33.1832 101.545 32.1835 102.802 30.4983L100.631 28.2987C100.187 28.7906 99.645 29.1844 99.04 29.4549C98.435 29.7254 97.7803 29.8667 97.1175 29.8698C95.3465 29.8698 94.09 28.9555 93.6899 27.3848H103.716C103.775 26.785 103.803 26.3278 103.803 25.9564H103.803ZM93.6909 24.9567C94.0908 23.157 95.4049 22.3857 96.9473 22.3857C98.6325 22.3857 99.9179 23.3856 100.032 24.9567H93.6909ZM120.049 25.9671C120.049 21.883 116.936 19.1688 113.108 19.1688C109.309 19.1688 106.024 21.8824 106.024 26.1957C106.024 30.3091 109.023 33.194 113.136 33.194C115.478 33.194 117.792 32.1943 119.049 30.509L116.879 28.3105C116.435 28.8024 115.893 29.1961 115.288 29.4666C114.683 29.7372 114.029 29.8785 113.366 29.8816C111.595 29.8816 110.338 28.9672 109.938 27.3966H119.964C120.022 26.7955 120.051 26.3386 120.051 25.9671H120.049ZM110.605 24.9567C111.005 23.157 112.319 22.3857 113.861 22.3857C115.547 22.3857 116.832 23.3856 116.946 24.9567H110.605Z" fill="black"/>
</svg>
